# xmcd
#
# Track frame offsets: 
#        150
#        9632
#        20298
#        30801
#        39954
#        50133
#        62445
#        72059
#        82479
#        92252
#        102621
#        112393
#        120764
#        132401
#        141636
#        150573
#        161832
#        173657
#        181865
#        191073
#
# Disc length: 2681 seconds
#
# Revision: 0
# Processed by: cddbd v1.5.2PL0 Copyright (c) Steve Scherf et al.
# Submitted via: ExactAudioCopy v0.95b2
#
DISCID=0c0a7714
DTITLE=Bud Isaacs - Bud Isaacs And His Cryin' Steel Guitar
DYEAR=1900
DGENRE=Country
TTITLE0=Hot Mocking Bird
TTITLE1=Indian Love Call
TTITLE2=The Waltz You Saved For Me
TTITLE3=Steelin' Away
TTITLE4=Skokiaan
TTITLE5=Panhandle Rag
TTITLE6=Yesterday's Waltz
TTITLE7=Beautiful Kahana
TTITLE8=Bud's Bounce
TTITLE9=Bud's Waltz
TTITLE10=Blue Mirage
TTITLE11=Bohemiana Polka
TTITLE12=Westphalia Waltz
TTITLE13=Steel Guitar Breakdown
TTITLE14=Boing!
TTITLE15=Waltz Of The Ozarks
TTITLE16=By The Waters Of The Minnetonka
TTITLE17=Steelin' Home
TTITLE18=Turn Around
TTITLE19=Kentucky Waltz
EXTD=
EXTT0=
EXTT1=
EXTT2=
EXTT3=
EXTT4=
EXTT5=
EXTT6=
EXTT7=
EXTT8=
EXTT9=
EXTT10=
EXTT11=
EXTT12=
EXTT13=
EXTT14=
EXTT15=
EXTT16=
EXTT17=
EXTT18=
EXTT19=
PLAYORDER=
